PathFileType	4	(X/Y/Z)	C:/Users/opensim2020/Desktop/walking_exp_matlab/subject01_walking07_straight_01.trc	
DataRate	CameraRate	NumFrames	NumMarkers	Units	OrigDataRate	OrigDataStartFrame	OrigNumFrames	
100.00	100.00	4	43	mm	100.00	655	282	
Frame#	Time	LFHD			RFHD			LBHD			RBHD			C7			T10			CLAV			STRN			RBAK			LSHO			LUPA			LELB			LFRM			LWRA			LWRB			LFIN			RSHO			RUPA			RELB			RFRM			RWRA			RWRB			RFIN			LASI			RASI			LPSI			RPSI			LTHI			LKNE			LTIB			LANK			LHEE			LTOE			RTHI			RKNE			RTIB			RANK			RHEE			RTOE			*39			*40			*41			*42			
		X1	Y1	Z1	X2	Y2	Z2	X3	Y3	Z3	X4	Y4	Z4	X5	Y5	Z5	X6	Y6	Z6	X7	Y7	Z7	X8	Y8	Z8	X9	Y9	Z9	X10	Y10	Z10	X11	Y11	Z11	X12	Y12	Z12	X13	Y13	Z13	X14	Y14	Z14	X15	Y15	Z15	X16	Y16	Z16	X17	Y17	Z17	X18	Y18	Z18	X19	Y19	Z19	X20	Y20	Z20	X21	Y21	Z21	X22	Y22	Z22	X23	Y23	Z23	X24	Y24	Z24	X25	Y25	Z25	X26	Y26	Z26	X27	Y27	Z27	X28	Y28	Z28	X29	Y29	Z29	X30	Y30	Z30	X31	Y31	Z31	X32	Y32	Z32	X33	Y33	Z33	X34	Y34	Z34	X35	Y35	Z35	X36	Y36	Z36	X37	Y37	Z37	X38	Y38	Z38	X39	Y39	Z39	X40	Y40	Z40	X41	Y41	Z41	X42	Y42	Z42	X43	Y43	Z43	

1	0.000	1241.97595	-1513.83533	1629.95911	1358.18823	-1524.01282	1636.29114	1222.71350	-1631.75195	1605.47778	1342.21106	-1649.54700	1612.10278	1220.82397	-1699.93738	1413.58521	1198.00769	-1738.15747	1117.50952	1292.70496	-1581.23547	1337.30750	1310.35254	-1547.07434	1183.20044	1252.02429	-1792.99744	1219.85376	1124.81982	-1548.56934	1370.11047	1033.77966	-1539.21497	1187.32166	1023.29126	-1563.69006	1038.03040	1018.96918	-1528.77307	926.60785	1075.60046	-1489.17773	803.06250	1021.01599	-1515.66931	804.29114	1042.82971	-1482.96155	727.66241	1389.34705	-1711.63477	1373.47046	1439.03601	-1821.58008	1177.32300	1440.06348	-1822.19775	1050.55615	1484.69128	-1806.10095	934.03198	1522.15991	-1718.56909	829.55206	1523.67432	-1776.15027	821.61249	1549.60254	-1736.73657	750.21985	1206.97021	-1531.92664	907.47327	1388.55310	-1654.13440	910.63446	1143.24194	-1712.75684	925.19110	1263.55505	-1792.91943	934.51459	1187.44788	-1496.70105	579.52521	1225.61560	-1500.55334	448.99832	1230.99353	-1537.69080	260.11041	1312.41846	-1575.66785	56.58175	1360.76819	-1629.71375	29.65286	1334.10413	-1434.00696	30.33350	1416.45557	-1776.98022	587.78296	1406.17615	-1783.90088	427.05518	1314.74585	-1899.74475	330.55478	1187.80725	-1990.58997	186.61813	1114.04419	-1990.46338	204.86772	1198.16748	-1972.61340	43.17574	1333.57971	-1524.45337	1670.45862	-3101.96729	1973.08643	1023.51593	-3140.70874	2012.52063	1022.04321			 
2	0.010	1244.33826	-1505.56409	1630.90149	1360.51526	-1515.34302	1637.25256	1225.66370	-1623.69690	1606.42627	1345.20679	-1640.94971	1613.05188	1224.65564	-1692.08850	1414.47729	1203.14624	-1731.22241	1118.35461	1295.22998	-1572.84399	1338.19568	1312.82446	-1538.51770	1184.12122	1257.17126	-1785.23975	1220.83545	1127.25146	-1541.82324	1370.77454	1036.48962	-1532.18127	1187.89929	1026.78650	-1556.28064	1038.08118	1022.79944	-1520.48743	926.97150	1079.96753	-1478.74084	804.39618	1025.64441	-1505.88440	804.88025	1047.86377	-1472.19128	728.97803	1393.33215	-1702.31982	1374.31531	1443.82495	-1812.87378	1178.63831	1443.57886	-1814.40466	1051.63574	1487.51831	-1799.63440	934.65668	1524.13745	-1713.08411	829.06653	1525.63660	-1770.54285	821.28119	1550.86694	-1731.94678	749.79407	1208.78845	-1524.91174	907.74036	1392.25696	-1644.33130	911.27802	1148.37354	-1707.50281	925.75378	1270.44690	-1785.43713	934.17365	1188.17834	-1493.99866	579.37775	1226.53003	-1497.93445	449.08636	1231.78394	-1536.29810	260.34222	1312.67200	-1575.63818	56.87371	1360.83838	-1629.80383	29.77735	1333.88818	-1433.93774	30.14095	1425.15662	-1761.67505	587.14502	1416.61511	-1766.50610	426.68588	1327.77283	-1885.86511	332.55942	1199.88403	-1981.32214	193.07991	1126.79968	-1983.12109	213.05148	1208.24658	-1966.28296	48.53042	1336.07019	-1515.63672	1671.72644	-3101.93774	1973.11511	1023.42139	-3140.69531	2012.57776	1022.04535			 
3	0.020	1246.94995	-1495.89734	1631.89526	1362.80664	-1506.61914	1638.24622	1228.59143	-1615.77612	1607.41150	1348.20056	-1632.35718	1614.07434	1228.39929	-1684.32458	1415.31934	1208.24255	-1724.20923	1119.13379	1298.07349	-1564.61255	1339.25415	1315.17371	-1529.99890	1185.06738	1262.14795	-1777.46448	1221.76648	1129.68860	-1535.12073	1371.33826	1039.12402	-1525.37756	1188.52222	1030.08057	-1548.90393	1038.28125	1026.46704	-1512.04834	927.37512	1084.26025	-1468.01782	805.85022	1030.41577	-1495.89172	805.39557	1052.86951	-1460.95837	730.25159	1397.22009	-1692.97070	1375.05188	1448.73828	-1804.09485	1179.96252	1447.25854	-1806.54663	1052.81287	1490.37891	-1793.15002	935.41077	1526.11072	-1707.66467	828.56250	1527.83679	-1765.35303	821.72205	1552.25208	-1727.29480	749.20404	1210.82275	-1518.08167	908.14856	1395.99512	-1634.75146	912.10132	1153.44714	-1702.05188	926.39215	1277.00537	-1777.96240	933.95557	1188.81287	-1491.72083	579.14124	1227.03088	-1495.98218	448.87372	1232.45837	-1535.52686	260.36725	1312.69836	-1575.65808	56.78630	1361.04492	-1629.83167	29.75965	1333.57971	-1433.79126	29.98375	1433.66199	-1745.64771	586.58368	1426.44446	-1748.59534	426.54858	1340.44897	-1871.39612	334.77213	1212.00659	-1970.74683	198.52901	1139.14893	-1973.98547	218.80928	1221.09473	-1958.33484	53.29723	1338.36719	-1507.14709	1672.92896	-3101.98779	1973.07581	1023.57660	-3140.72681	2012.50842	1022.06146			 
4	0.030	1249.25061	-1487.73938	1632.82214	1365.09497	-1497.96204	1639.26880	1231.44666	-1608.16516	1608.55273	1351.26111	-1623.80029	1615.13855	1232.18958	-1676.72205	1416.20032	1213.20630	-1717.45032	1120.05090	1300.69153	-1556.38391	1340.26050	1317.64148	-1521.68494	1186.02148	1266.91895	-1769.61438	1222.64148	1132.18103	-1528.44446	1371.89697	1041.74060	-1518.73267	1189.09839	1033.35083	-1541.47949	1038.63037	1030.02258	-1503.51086	927.89294	1088.47632	-1457.20959	807.50153	1034.92383	-1485.59998	806.16705	1057.66882	-1449.25293	731.61182	1401.27039	-1683.83350	1376.02576	1453.46399	-1795.13342	1181.17236	1451.15881	-1798.56653	1054.11694	1493.36194	-1786.55627	936.15442	1528.10315	-1702.33484	828.11786	1529.94580	-1760.07190	821.96820	1553.64734	-1722.87292	748.72089	1213.01514	-1511.49963	908.75586	1399.79761	-1625.33008	912.93909	1158.40833	-1696.55469	927.16260	1283.26099	-1770.50696	933.98901	1189.40161	-1489.60315	578.92322	1227.27136	-1494.22559	448.47720	1232.79663	-1535.31030	260.33517	1312.78967	-1575.84363	57.06792	1361.20605	-1629.82898	29.71724	1332.41406	-1434.18848	29.58507	1441.89172	-1729.21362	586.22217	1436.03125	-1730.31421	427.24942	1352.37646	-1855.98901	336.76651	1224.28308	-1958.97009	203.15314	1150.24231	-1963.32446	221.61272	1235.26453	-1948.51501	57.73588	1339.45007	-1500.89722	1674.23291	-3101.91699	1973.17896	1023.39490	-3140.67944	2012.50256	1021.99225			 
